<svg id="visual" viewBox="0 0 900 600" width="900" height="600" xmlns="http://www.w3.org/2000/svg" xmlns:xlink="http://www.w3.org/1999/xlink" version="1.1">
    <path d="M0 163L11.5 158C23 153 46 143 69 150C92 157 115 181 138.2 178C161.3 175 184.7 145 207.8 147C231 149 254 183 277 184C300 185 323 153 346 160C369 167 392 213 415.2 227C438.3 241 461.7 223 484.8 203C508 183 531 161 554 163C577 165 600 191 623 201C646 211 669 205 692.2 206C715.3 207 738.7 215 761.8 207C785 199 808 175 831 169C854 163 877 175 888.5 181L900 187L900 0L888.5 0C877 0 854 0 831 0C808 0 785 0 761.8 0C738.7 0 715.3 0 692.2 0C669 0 646 0 623 0C600 0 577 0 554 0C531 0 508 0 484.8 0C461.7 0 438.3 0 415.2 0C392 0 369 0 346 0C323 0 300 0 277 0C254 0 231 0 207.8 0C184.7 0 161.3 0 138.2 0C115 0 92 0 69 0C46 0 23 0 11.5 0L0 0Z" fill="#505660"></path>
    <path d="M0 217L11.5 212C23 207 46 197 69 209C92 221 115 255 138.2 260C161.3 265 184.7 241 207.8 236C231 231 254 245 277 237C300 229 323 199 346 214C369 229 392 289 415.2 303C438.3 317 461.7 285 484.8 260C508 235 531 217 554 223C577 229 600 259 623 276C646 293 669 297 692.2 298C715.3 299 738.7 297 761.8 285C785 273 808 251 831 250C854 249 877 269 888.5 279L900 289L900 185L888.5 179C877 173 854 161 831 167C808 173 785 197 761.8 205C738.7 213 715.3 205 692.2 204C669 203 646 209 623 199C600 189 577 163 554 161C531 159 508 181 484.8 201C461.7 221 438.3 239 415.2 225C392 211 369 165 346 158C323 151 300 183 277 182C254 181 231 147 207.8 145C184.7 143 161.3 173 138.2 176C115 179 92 155 69 148C46 141 23 151 11.5 156L0 161Z" fill="#3f444d"></path>
    <path d="M0 397L11.5 384C23 371 46 345 69 353C92 361 115 403 138.2 399C161.3 395 184.7 345 207.8 330C231 315 254 335 277 340C300 345 323 335 346 350C369 365 392 405 415.2 414C438.3 423 461.7 401 484.8 379C508 357 531 335 554 329C577 323 600 333 623 348C646 363 669 383 692.2 392C715.3 401 738.7 399 761.8 389C785 379 808 361 831 351C854 341 877 339 888.5 338L900 337L900 287L888.5 277C877 267 854 247 831 248C808 249 785 271 761.8 283C738.7 295 715.3 297 692.2 296C669 295 646 291 623 274C600 257 577 227 554 221C531 215 508 233 484.8 258C461.7 283 438.3 315 415.2 301C392 287 369 227 346 212C323 197 300 227 277 235C254 243 231 229 207.8 234C184.7 239 161.3 263 138.2 258C115 253 92 219 69 207C46 195 23 205 11.5 210L0 215Z" fill="#2e333b"></path>
    <path d="M0 553L11.5 548C23 543 46 533 69 530C92 527 115 531 138.2 525C161.3 519 184.7 503 207.8 496C231 489 254 491 277 498C300 505 323 517 346 527C369 537 392 545 415.2 543C438.3 541 461.7 529 484.8 528C508 527 531 537 554 539C577 541 600 535 623 525C646 515 669 501 692.2 498C715.3 495 738.7 503 761.8 506C785 509 808 507 831 506C854 505 877 505 888.5 505L900 505L900 335L888.5 336C877 337 854 339 831 349C808 359 785 377 761.8 387C738.7 397 715.3 399 692.2 390C669 381 646 361 623 346C600 331 577 321 554 327C531 333 508 355 484.8 377C461.7 399 438.3 421 415.2 412C392 403 369 363 346 348C323 333 300 343 277 338C254 333 231 313 207.8 328C184.7 343 161.3 393 138.2 397C115 401 92 359 69 351C46 343 23 369 11.5 382L0 395Z" fill="#282c33"></path>
    <path d="M0 601L11.5 601C23 601 46 601 69 601C92 601 115 601 138.2 601C161.3 601 184.7 601 207.8 601C231 601 254 601 277 601C300 601 323 601 346 601C369 601 392 601 415.2 601C438.3 601 461.7 601 484.8 601C508 601 531 601 554 601C577 601 600 601 623 601C646 601 669 601 692.2 601C715.3 601 738.7 601 761.8 601C785 601 808 601 831 601C854 601 877 601 888.5 601L900 601L900 503L888.5 503C877 503 854 503 831 504C808 505 785 507 761.8 504C738.7 501 715.3 493 692.2 496C669 499 646 513 623 523C600 533 577 539 554 537C531 535 508 525 484.8 526C461.7 527 438.3 539 415.2 541C392 543 369 535 346 525C323 515 300 503 277 496C254 489 231 487 207.8 494C184.7 501 161.3 517 138.2 523C115 529 92 525 69 528C46 531 23 541 11.5 546L0 551Z" fill="#23262c"></path>
</svg>